<svg xmlns:xlink="http://www.w3.org/1999/xlink" version="1.1" class="highcharts-root" style="font-family: -apple-system, BlinkMacSystemFont, &quot;Segoe UI&quot;, Roboto, Helvetica, Arial, &quot;Apple Color Emoji&quot;, &quot;Segoe UI Emoji&quot;, &quot;Segoe UI Symbol&quot;, sans-serif; font-size: 1rem;" xmlns="http://www.w3.org/2000/svg" width="600" height="400" viewBox="0 0 600 400" aria-label="Interactive chart" aria-hidden="false"><desc aria-hidden="true">Created with Highcharts 12.1.2</desc><defs aria-hidden="true"><filter id="highcharts-drop-shadow-1"><feDropShadow dx="1" dy="1" flood-color="#000000" flood-opacity="0.75" stdDeviation="2.5"></feDropShadow></filter><clipPath id="highcharts-sa90cp7-39-"><rect x="0" y="0" width="511" height="375" fill="none"></rect></clipPath></defs><rect fill="transparent" class="highcharts-background" filter="none" x="0" y="0" width="600" height="400" rx="0" ry="0" aria-hidden="true"></rect><rect fill="none" class="highcharts-plot-background" x="79" y="10" width="511" height="375" filter="none" aria-hidden="true"></rect><g class="highcharts-grid highcharts-xaxis-grid" data-z-index="1" aria-hidden="true"><path fill="none" stroke="#e6e6e6" stroke-width="0" stroke-dasharray="none" data-z-index="1" class="highcharts-grid-line" d="M 206.5 10 L 206.5 385" opacity="1"></path><path fill="none" stroke="#e6e6e6" stroke-width="0" stroke-dasharray="none" data-z-index="1" class="highcharts-grid-line" d="M 334.5 10 L 334.5 385" opacity="1"></path><path fill="none" stroke="#e6e6e6" stroke-width="0" stroke-dasharray="none" data-z-index="1" class="highcharts-grid-line" d="M 462.5 10 L 462.5 385" opacity="1"></path><path fill="none" stroke="#e6e6e6" stroke-width="0" stroke-dasharray="none" data-z-index="1" class="highcharts-grid-line" d="M 590.5 10 L 590.5 385" opacity="1"></path><path fill="none" stroke="#e6e6e6" stroke-width="0" stroke-dasharray="none" data-z-index="1" class="highcharts-grid-line" d="M 79.5 10 L 79.5 385" opacity="1"></path></g><g class="highcharts-grid highcharts-yaxis-grid" data-z-index="1" aria-hidden="true"><path fill="none" stroke="#e6e6e6" stroke-width="1" stroke-dasharray="none" data-z-index="1" class="highcharts-grid-line" d="M 79 385.5 L 590 385.5" opacity="1"></path><path fill="none" stroke="#e6e6e6" stroke-width="1" stroke-dasharray="none" data-z-index="1" class="highcharts-grid-line" d="M 79 310.5 L 590 310.5" opacity="1"></path><path fill="none" stroke="#e6e6e6" stroke-width="1" stroke-dasharray="none" data-z-index="1" class="highcharts-grid-line" d="M 79 235.5 L 590 235.5" opacity="1"></path><path fill="none" stroke="#e6e6e6" stroke-width="1" stroke-dasharray="none" data-z-index="1" class="highcharts-grid-line" d="M 79 160.5 L 590 160.5" opacity="1"></path><path fill="none" stroke="#e6e6e6" stroke-width="1" stroke-dasharray="none" data-z-index="1" class="highcharts-grid-line" d="M 79 85.5 L 590 85.5" opacity="1"></path><path fill="none" stroke="#e6e6e6" stroke-width="1" stroke-dasharray="none" data-z-index="1" class="highcharts-grid-line" d="M 79 10.5 L 590 10.5" opacity="1"></path></g><rect fill="none" class="highcharts-plot-border" data-z-index="1" stroke="#cccccc" stroke-width="0" x="79" y="10" width="511" height="375" aria-hidden="true"></rect><g class="highcharts-axis highcharts-xaxis" data-z-index="2" aria-hidden="true"><path fill="none" class="highcharts-axis-line" stroke="#333333" stroke-width="1" data-z-index="7" d="M 79 385.5 L 590 385.5"></path></g><g class="highcharts-axis highcharts-yaxis" data-z-index="2" aria-hidden="true"><text x="24.828125" data-z-index="7" text-anchor="middle" transform="translate(0,0) rotate(270 24.828125 197.5)" class="highcharts-axis-title" style="color: rgb(102, 102, 102); font-size: 0.8em; fill: rgb(102, 102, 102);" y="197.5">% of GDP</text><path fill="none" class="highcharts-axis-line" stroke="#333333" stroke-width="0" data-z-index="7" d="M 79 10 L 79 385"></path></g><g class="highcharts-series-group" data-z-index="3" filter="none" aria-hidden="false"><g class="highcharts-series highcharts-series-0 highcharts-column-series highcharts-color-0" data-z-index="0.1" opacity="1" transform="translate(79,10) scale(1 1)" clip-path="url(#highcharts-sa90cp7-39-)" aria-hidden="false" role="region" tabindex="-1" aria-label="Education, bar series 1 of 3 with 4 bars." style="outline: none;"><path fill="rgb(44, 175, 254, 0.5)" d="M 31.5 352.5 L 46.5 352.5 A 3 3 0 0 1 49.5 355.5 L 49.5 375.5 A 0 0 0 0 1 49.5 375.5 L 28.5 375.5 A 0 0 0 0 1 28.5 375.5 L 28.5 355.5 A 3 3 0 0 1 31.5 352.5 Z" stroke="#ffffff" stroke-width="1" opacity="1" filter="none" class="highcharts-point highcharts-color-0" tabindex="-1" role="img" aria-label="x, 0, 0.3. Education." style="outline: none;"></path><path fill="#2caffe" d="M 158.5 360.5 L 173.5 360.5 A 3 3 0 0 1 176.5 363.5 L 176.5 375.5 A 0 0 0 0 1 176.5 375.5 L 155.5 375.5 A 0 0 0 0 1 155.5 375.5 L 155.5 363.5 A 3 3 0 0 1 158.5 360.5 Z" stroke="#ffffff" stroke-width="1" opacity="1" filter="none" class="highcharts-point highcharts-color-0" tabindex="-1" role="img" aria-label="x, 1, 0.2. Education." style="outline: none;"></path><path fill="rgb(44, 175, 254, 0.5)" d="M 286.5 322.5 L 301.5 322.5 A 3 3 0 0 1 304.5 325.5 L 304.5 375.5 A 0 0 0 0 1 304.5 375.5 L 283.5 375.5 A 0 0 0 0 1 283.5 375.5 L 283.5 325.5 A 3 3 0 0 1 286.5 322.5 Z" stroke="#ffffff" stroke-width="1" opacity="1" filter="none" class="highcharts-point highcharts-color-0" tabindex="-1" role="img" aria-label="x, 2, 0.7. Education." style="outline: none;"></path><path fill="rgb(44, 175, 254, 0.5)" d="M 414.5 322.5 L 429.5 322.5 A 3 3 0 0 1 432.5 325.5 L 432.5 375.5 A 0 0 0 0 1 432.5 375.5 L 411.5 375.5 A 0 0 0 0 1 411.5 375.5 L 411.5 325.5 A 3 3 0 0 1 414.5 322.5 Z" stroke="#ffffff" stroke-width="1" opacity="1" filter="none" class="highcharts-point highcharts-color-0" tabindex="-1" role="img" aria-label="x, 3, 0.7. Education." style="outline: none;"></path></g><g class="highcharts-markers highcharts-series-0 highcharts-column-series highcharts-color-0" data-z-index="0.1" opacity="1" transform="translate(79,10) scale(1 1)" clip-path="none" aria-hidden="true"></g><g class="highcharts-series highcharts-series-1 highcharts-column-series highcharts-color-1" data-z-index="0.1" opacity="1" transform="translate(79,10) scale(1 1)" clip-path="url(#highcharts-sa90cp7-39-)" aria-hidden="false" role="region" tabindex="-1" aria-label="Life years, bar series 2 of 3 with 4 bars." style="outline: none;"><path fill="rgb(84, 79, 197, 0.5)" d="M 56.5 180.5 L 71.5 180.5 A 3 3 0 0 1 74.5 183.5 L 74.5 375.5 A 0 0 0 0 1 74.5 375.5 L 53.5 375.5 A 0 0 0 0 1 53.5 375.5 L 53.5 183.5 A 3 3 0 0 1 56.5 180.5 Z" stroke="#ffffff" stroke-width="1" opacity="1" filter="none" class="highcharts-point highcharts-color-1" tabindex="-1" role="img" aria-label="x, 0, 2.6. Life years." style="outline: none;"></path><path fill="#544fc5" d="M 184.5 45.5 L 199.5 45.5 A 3 3 0 0 1 202.5 48.5 L 202.5 375.5 A 0 0 0 0 1 202.5 375.5 L 181.5 375.5 A 0 0 0 0 1 181.5 375.5 L 181.5 48.5 A 3 3 0 0 1 184.5 45.5 Z" stroke="#ffffff" stroke-width="1" opacity="1" filter="none" class="highcharts-point highcharts-color-1" tabindex="-1" role="img" aria-label="x, 1, 4.4. Life years." style="outline: none;"></path><path fill="rgb(84, 79, 197, 0.5)" d="M 312.5 135.5 L 327.5 135.5 A 3 3 0 0 1 330.5 138.5 L 330.5 375.5 A 0 0 0 0 1 330.5 375.5 L 309.5 375.5 A 0 0 0 0 1 309.5 375.5 L 309.5 138.5 A 3 3 0 0 1 312.5 135.5 Z" stroke="#ffffff" stroke-width="1" opacity="1" filter="none" class="highcharts-point highcharts-color-1" tabindex="-1" role="img" aria-label="x, 2, 3.2. Life years." style="outline: none;"></path><path fill="rgb(84, 79, 197, 0.5)" d="M 439.5 135.5 L 454.5 135.5 A 3 3 0 0 1 457.5 138.5 L 457.5 375.5 A 0 0 0 0 1 457.5 375.5 L 436.5 375.5 A 0 0 0 0 1 436.5 375.5 L 436.5 138.5 A 3 3 0 0 1 439.5 135.5 Z" stroke="#ffffff" stroke-width="1" opacity="1" filter="none" class="highcharts-point highcharts-color-1" tabindex="-1" role="img" aria-label="x, 3, 3.2. Life years." style="outline: none;"></path></g><g class="highcharts-markers highcharts-series-1 highcharts-column-series highcharts-color-1" data-z-index="0.1" opacity="1" transform="translate(79,10) scale(1 1)" clip-path="none" aria-hidden="true"></g><g class="highcharts-series highcharts-series-2 highcharts-column-series highcharts-color-2" data-z-index="0.1" opacity="1" transform="translate(79,10) scale(1 1)" clip-path="url(#highcharts-sa90cp7-39-)" aria-hidden="false" role="region" tabindex="-1" aria-label="GDP, bar series 3 of 3 with 4 bars." style="outline: none;"><path fill="rgb(0, 226, 114, 0.5)" d="M 82.5 345.5 L 97.5 345.5 A 3 3 0 0 1 100.5 348.5 L 100.5 375.5 A 0 0 0 0 1 100.5 375.5 L 79.5 375.5 A 0 0 0 0 1 79.5 375.5 L 79.5 348.5 A 3 3 0 0 1 82.5 345.5 Z" stroke="#ffffff" stroke-width="1" opacity="1" filter="none" class="highcharts-point highcharts-color-2" tabindex="-1" role="img" aria-label="x, 0, 0.4. GDP." style="outline: none;"></path><path fill="#00e272" d="M 209.5 352.5 L 224.5 352.5 A 3 3 0 0 1 227.5 355.5 L 227.5 375.5 A 0 0 0 0 1 227.5 375.5 L 206.5 375.5 A 0 0 0 0 1 206.5 375.5 L 206.5 355.5 A 3 3 0 0 1 209.5 352.5 Z" stroke="#ffffff" stroke-width="1" opacity="1" filter="none" class="highcharts-point highcharts-color-2" tabindex="-1" role="img" aria-label="x, 1, 0.3. GDP." style="outline: none;"></path><path fill="rgb(0, 226, 114, 0.5)" d="M 337.5 360.5 L 352.5 360.5 A 3 3 0 0 1 355.5 363.5 L 355.5 375.5 A 0 0 0 0 1 355.5 375.5 L 334.5 375.5 A 0 0 0 0 1 334.5 375.5 L 334.5 363.5 A 3 3 0 0 1 337.5 360.5 Z" stroke="#ffffff" stroke-width="1" opacity="1" filter="none" class="highcharts-point highcharts-color-2" tabindex="-1" role="img" aria-label="x, 2, 0.2. GDP." style="outline: none;"></path><path fill="rgb(0, 226, 114, 0.5)" d="M 465.5 360.5 L 480.5 360.5 A 3 3 0 0 1 483.5 363.5 L 483.5 375.5 A 0 0 0 0 1 483.5 375.5 L 462.5 375.5 A 0 0 0 0 1 462.5 375.5 L 462.5 363.5 A 3 3 0 0 1 465.5 360.5 Z" stroke="#ffffff" stroke-width="1" opacity="1" filter="none" class="highcharts-point highcharts-color-2" tabindex="-1" role="img" aria-label="x, 3, 0.2. GDP." style="outline: none;"></path></g><g class="highcharts-markers highcharts-series-2 highcharts-column-series highcharts-color-2" data-z-index="0.1" opacity="1" transform="translate(79,10) scale(1 1)" clip-path="none" aria-hidden="true"></g></g><text x="10" text-anchor="start" class="highcharts-title" data-z-index="4" style="font-size: 1.2em; color: rgb(51, 51, 51); font-weight: bold; fill: rgb(51, 51, 51);" text-align="left" y="25" transform-origin="10 22" transform="translate(0,0) scale(1 1)" aria-hidden="true"></text><text x="10" class="highcharts-subtitle" data-z-index="4" text-align="left" y="24" text-anchor="start" transform-origin="10 15" transform="translate(0,0) scale(1 1)" style="color: rgb(102, 102, 102); font-size: 0.8em; fill: rgb(102, 102, 102);" aria-hidden="true"></text><text x="10" text-anchor="start" class="highcharts-caption" data-z-index="4" style="color: rgb(102, 102, 102); font-size: 0.8em; fill: rgb(102, 102, 102);" text-align="left" y="397" transform-origin="10 15" transform="translate(0,0) scale(1 1)" aria-hidden="true"></text><g class="highcharts-stack-labels" data-z-index="6" opacity="1" transform="translate(79,10)" aria-hidden="true"></g><g class="highcharts-axis-labels highcharts-xaxis-labels" data-z-index="7" aria-hidden="true"><text x="142.875" text-anchor="middle" transform="translate(0,0)" style="color: rgb(51, 51, 51); cursor: default; font-size: 0.8em; fill: rgb(51, 51, 51);" y="412" opacity="1"></text><text x="270.625" text-anchor="middle" transform="translate(0,0)" style="color: rgb(51, 51, 51); cursor: default; font-size: 0.8em; fill: rgb(51, 51, 51);" y="412" opacity="1"></text><text x="398.375" text-anchor="middle" transform="translate(0,0)" style="color: rgb(51, 51, 51); cursor: default; font-size: 0.8em; fill: rgb(51, 51, 51);" y="412" opacity="1"></text><text x="526.125" text-anchor="middle" transform="translate(0,0)" style="color: rgb(51, 51, 51); cursor: default; font-size: 0.8em; fill: rgb(51, 51, 51);" y="412" opacity="1"></text></g><g class="highcharts-axis-labels highcharts-yaxis-labels" data-z-index="7" aria-hidden="true"><text x="64" text-anchor="end" transform="translate(0,0)" style="color: rgb(51, 51, 51); cursor: default; font-size: 0.8em; fill: rgb(51, 51, 51);" y="390" opacity="1">0.0%</text><text x="64" text-anchor="end" transform="translate(0,0)" style="color: rgb(51, 51, 51); cursor: default; font-size: 0.8em; fill: rgb(51, 51, 51);" y="315" opacity="1">1.0%</text><text x="64" text-anchor="end" transform="translate(0,0)" style="color: rgb(51, 51, 51); cursor: default; font-size: 0.8em; fill: rgb(51, 51, 51);" y="240" opacity="1">2.0%</text><text x="64" text-anchor="end" transform="translate(0,0)" style="color: rgb(51, 51, 51); cursor: default; font-size: 0.8em; fill: rgb(51, 51, 51);" y="165" opacity="1">3.0%</text><text x="64" text-anchor="end" transform="translate(0,0)" style="color: rgb(51, 51, 51); cursor: default; font-size: 0.8em; fill: rgb(51, 51, 51);" y="90" opacity="1">4.0%</text><text x="64" text-anchor="end" transform="translate(0,0)" style="color: rgb(51, 51, 51); cursor: default; font-size: 0.8em; fill: rgb(51, 51, 51);" y="15" opacity="1">5.0%</text></g><text x="590" class="highcharts-credits" text-anchor="end" data-z-index="8" text-align="right" y="395" style="cursor: pointer; color: rgb(153, 153, 153); font-size: 0.6em; fill: rgb(153, 153, 153);" aria-label="Chart credits: Highcharts.com" aria-hidden="false">Highcharts.com</text></svg>