<svg xmlns:xlink="http://www.w3.org/1999/xlink" version="1.1" class="highcharts-root" style="font-family: -apple-system, BlinkMacSystemFont, &quot;Segoe UI&quot;, Roboto, Helvetica, Arial, &quot;Apple Color Emoji&quot;, &quot;Segoe UI Emoji&quot;, &quot;Segoe UI Symbol&quot;, sans-serif; font-size: 1rem;" xmlns="http://www.w3.org/2000/svg" width="600" height="400" viewBox="0 0 600 400" aria-label="Interactive chart" aria-hidden="false"><desc aria-hidden="true">Created with Highcharts 12.1.2</desc><defs aria-hidden="true"><filter id="highcharts-drop-shadow-1"><feDropShadow dx="1" dy="1" flood-color="#000000" flood-opacity="0.75" stdDeviation="2.5"></feDropShadow></filter><clipPath id="highcharts-24d2kg4-39-"><rect x="0" y="0" width="511" height="375" fill="none"></rect></clipPath></defs><rect fill="transparent" class="highcharts-background" filter="none" x="0" y="0" width="600" height="400" rx="0" ry="0" aria-hidden="true"></rect><rect fill="none" class="highcharts-plot-background" x="79" y="10" width="511" height="375" filter="none" aria-hidden="true"></rect><g class="highcharts-grid highcharts-xaxis-grid" data-z-index="1" aria-hidden="true"><path fill="none" stroke="#e6e6e6" stroke-width="0" stroke-dasharray="none" data-z-index="1" class="highcharts-grid-line" d="M 206.5 10 L 206.5 385" opacity="1"></path><path fill="none" stroke="#e6e6e6" stroke-width="0" stroke-dasharray="none" data-z-index="1" class="highcharts-grid-line" d="M 334.5 10 L 334.5 385" opacity="1"></path><path fill="none" stroke="#e6e6e6" stroke-width="0" stroke-dasharray="none" data-z-index="1" class="highcharts-grid-line" d="M 462.5 10 L 462.5 385" opacity="1"></path><path fill="none" stroke="#e6e6e6" stroke-width="0" stroke-dasharray="none" data-z-index="1" class="highcharts-grid-line" d="M 590.5 10 L 590.5 385" opacity="1"></path><path fill="none" stroke="#e6e6e6" stroke-width="0" stroke-dasharray="none" data-z-index="1" class="highcharts-grid-line" d="M 79.5 10 L 79.5 385" opacity="1"></path></g><g class="highcharts-grid highcharts-yaxis-grid" data-z-index="1" aria-hidden="true"><path fill="none" stroke="#e6e6e6" stroke-width="1" stroke-dasharray="none" data-z-index="1" class="highcharts-grid-line" d="M 79 385.5 L 590 385.5" opacity="1"></path><path fill="none" stroke="#e6e6e6" stroke-width="1" stroke-dasharray="none" data-z-index="1" class="highcharts-grid-line" d="M 79 322.5 L 590 322.5" opacity="1"></path><path fill="none" stroke="#e6e6e6" stroke-width="1" stroke-dasharray="none" data-z-index="1" class="highcharts-grid-line" d="M 79 260.5 L 590 260.5" opacity="1"></path><path fill="none" stroke="#e6e6e6" stroke-width="1" stroke-dasharray="none" data-z-index="1" class="highcharts-grid-line" d="M 79 197.5 L 590 197.5" opacity="1"></path><path fill="none" stroke="#e6e6e6" stroke-width="1" stroke-dasharray="none" data-z-index="1" class="highcharts-grid-line" d="M 79 135.5 L 590 135.5" opacity="1"></path><path fill="none" stroke="#e6e6e6" stroke-width="1" stroke-dasharray="none" data-z-index="1" class="highcharts-grid-line" d="M 79 72.5 L 590 72.5" opacity="1"></path><path fill="none" stroke="#e6e6e6" stroke-width="1" stroke-dasharray="none" data-z-index="1" class="highcharts-grid-line" d="M 79 10.5 L 590 10.5" opacity="1"></path></g><rect fill="none" class="highcharts-plot-border" data-z-index="1" stroke="#cccccc" stroke-width="0" x="79" y="10" width="511" height="375" aria-hidden="true"></rect><g class="highcharts-axis highcharts-xaxis" data-z-index="2" aria-hidden="true"><path fill="none" class="highcharts-axis-line" stroke="#333333" stroke-width="1" data-z-index="7" d="M 79 385.5 L 590 385.5"></path></g><g class="highcharts-axis highcharts-yaxis" data-z-index="2" aria-hidden="true"><text x="24.828125" data-z-index="7" text-anchor="middle" transform="translate(0,0) rotate(270 24.828125 197.5)" class="highcharts-axis-title" style="color: rgb(102, 102, 102); font-size: 0.8em; fill: rgb(102, 102, 102);" y="197.5">% of GDP</text><path fill="none" class="highcharts-axis-line" stroke="#333333" stroke-width="0" data-z-index="7" d="M 79 10 L 79 385"></path></g><g class="highcharts-series-group" data-z-index="3" filter="none" aria-hidden="false"><g class="highcharts-series highcharts-series-0 highcharts-column-series highcharts-color-0" data-z-index="0.1" opacity="1" transform="translate(79,10) scale(1 1)" clip-path="url(#highcharts-24d2kg4-39-)" aria-hidden="false" role="region" tabindex="-1" aria-label="Education, bar series 1 of 3 with 4 bars." style="outline: none;"><path fill="rgb(44, 175, 254, 0.5)" d="M 36.5 168.5 L 92.5 168.5 A 3 3 0 0 1 95.5 171.5 L 95.5 187.5 A 0 0 0 0 1 95.5 187.5 L 33.5 187.5 A 0 0 0 0 1 33.5 187.5 L 33.5 171.5 A 3 3 0 0 1 36.5 168.5 Z" stroke="#ffffff" stroke-width="1" opacity="1" filter="none" class="highcharts-point highcharts-color-0" tabindex="-1" role="img" aria-label="x, 0, 0.3. Education." style="outline: none;"></path><path fill="#2caffe" d="M 163.5 68.5 L 219.5 68.5 A 3 3 0 0 1 222.5 71.5 L 222.5 81.5 A 0 0 0 0 1 222.5 81.5 L 160.5 81.5 A 0 0 0 0 1 160.5 81.5 L 160.5 71.5 A 3 3 0 0 1 163.5 68.5 Z" stroke="#ffffff" stroke-width="1" opacity="1" filter="none" class="highcharts-point highcharts-color-0" tabindex="-1" role="img" aria-label="x, 1, 0.2. Education." style="outline: none;"></path><path fill="rgb(44, 175, 254, 0.5)" d="M 291.5 118.5 L 347.5 118.5 A 3 3 0 0 1 350.5 121.5 L 350.5 162.5 A 0 0 0 0 1 350.5 162.5 L 288.5 162.5 A 0 0 0 0 1 288.5 162.5 L 288.5 121.5 A 3 3 0 0 1 291.5 118.5 Z" stroke="#ffffff" stroke-width="1" opacity="1" filter="none" class="highcharts-point highcharts-color-0" tabindex="-1" role="img" aria-label="x, 2, 0.7. Education." style="outline: none;"></path><path fill="rgb(44, 175, 254, 0.5)" d="M 419.5 118.5 L 475.5 118.5 A 3 3 0 0 1 478.5 121.5 L 478.5 162.5 A 0 0 0 0 1 478.5 162.5 L 416.5 162.5 A 0 0 0 0 1 416.5 162.5 L 416.5 121.5 A 3 3 0 0 1 419.5 118.5 Z" stroke="#ffffff" stroke-width="1" opacity="1" filter="none" class="highcharts-point highcharts-color-0" tabindex="-1" role="img" aria-label="x, 3, 0.7. Education." style="outline: none;"></path></g><g class="highcharts-markers highcharts-series-0 highcharts-column-series highcharts-color-0" data-z-index="0.1" opacity="1" transform="translate(79,10) scale(1 1)" clip-path="none" aria-hidden="true"></g><g class="highcharts-series highcharts-series-1 highcharts-column-series highcharts-color-1" data-z-index="0.1" opacity="1" transform="translate(79,10) scale(1 1)" clip-path="url(#highcharts-24d2kg4-39-)" aria-hidden="false" role="region" tabindex="-1" aria-label="Life years, bar series 2 of 3 with 4 bars." style="outline: none;"><path fill="rgb(84, 79, 197, 0.5)" d="M 33.5 187.5 L 95.5 187.5 A 0 0 0 0 1 95.5 187.5 L 95.5 350.5 A 0 0 0 0 1 95.5 350.5 L 33.5 350.5 A 0 0 0 0 1 33.5 350.5 L 33.5 187.5 A 0 0 0 0 1 33.5 187.5 Z" stroke="#ffffff" stroke-width="1" opacity="1" filter="none" class="highcharts-point highcharts-color-1" tabindex="-1" role="img" aria-label="x, 0, 2.6. Life years." style="outline: none;"></path><path fill="#544fc5" d="M 160.5 81.5 L 222.5 81.5 A 0 0 0 0 1 222.5 81.5 L 222.5 356.5 A 0 0 0 0 1 222.5 356.5 L 160.5 356.5 A 0 0 0 0 1 160.5 356.5 L 160.5 81.5 A 0 0 0 0 1 160.5 81.5 Z" stroke="#ffffff" stroke-width="1" opacity="1" filter="none" class="highcharts-point highcharts-color-1" tabindex="-1" role="img" aria-label="x, 1, 4.4. Life years." style="outline: none;"></path><path fill="rgb(84, 79, 197, 0.5)" d="M 288.5 162.5 L 350.5 162.5 A 0 0 0 0 1 350.5 162.5 L 350.5 362.5 A 0 0 0 0 1 350.5 362.5 L 288.5 362.5 A 0 0 0 0 1 288.5 362.5 L 288.5 162.5 A 0 0 0 0 1 288.5 162.5 Z" stroke="#ffffff" stroke-width="1" opacity="1" filter="none" class="highcharts-point highcharts-color-1" tabindex="-1" role="img" aria-label="x, 2, 3.2. Life years." style="outline: none;"></path><path fill="rgb(84, 79, 197, 0.5)" d="M 416.5 162.5 L 478.5 162.5 A 0 0 0 0 1 478.5 162.5 L 478.5 362.5 A 0 0 0 0 1 478.5 362.5 L 416.5 362.5 A 0 0 0 0 1 416.5 362.5 L 416.5 162.5 A 0 0 0 0 1 416.5 162.5 Z" stroke="#ffffff" stroke-width="1" opacity="1" filter="none" class="highcharts-point highcharts-color-1" tabindex="-1" role="img" aria-label="x, 3, 3.2. Life years." style="outline: none;"></path></g><g class="highcharts-markers highcharts-series-1 highcharts-column-series highcharts-color-1" data-z-index="0.1" opacity="1" transform="translate(79,10) scale(1 1)" clip-path="none" aria-hidden="true"></g><g class="highcharts-series highcharts-series-2 highcharts-column-series highcharts-color-2" data-z-index="0.1" opacity="1" transform="translate(79,10) scale(1 1)" clip-path="url(#highcharts-24d2kg4-39-)" aria-hidden="false" role="region" tabindex="-1" aria-label="GDP, bar series 3 of 3 with 4 bars." style="outline: none;"><path fill="rgb(0, 226, 114, 0.5)" d="M 33.5 350.5 L 95.5 350.5 A 0 0 0 0 1 95.5 350.5 L 95.5 375.5 A 0 0 0 0 1 95.5 375.5 L 33.5 375.5 A 0 0 0 0 1 33.5 375.5 L 33.5 350.5 A 0 0 0 0 1 33.5 350.5 Z" stroke="#ffffff" stroke-width="1" opacity="1" filter="none" class="highcharts-point highcharts-color-2" tabindex="-1" role="img" aria-label="x, 0, 0.4. GDP." style="outline: none;"></path><path fill="#00e272" d="M 160.5 356.5 L 222.5 356.5 A 0 0 0 0 1 222.5 356.5 L 222.5 375.5 A 0 0 0 0 1 222.5 375.5 L 160.5 375.5 A 0 0 0 0 1 160.5 375.5 L 160.5 356.5 A 0 0 0 0 1 160.5 356.5 Z" stroke="#ffffff" stroke-width="1" opacity="1" filter="none" class="highcharts-point highcharts-color-2" tabindex="-1" role="img" aria-label="x, 1, 0.3. GDP." style="outline: none;"></path><path fill="rgb(0, 226, 114, 0.5)" d="M 288.5 362.5 L 350.5 362.5 A 0 0 0 0 1 350.5 362.5 L 350.5 375.5 A 0 0 0 0 1 350.5 375.5 L 288.5 375.5 A 0 0 0 0 1 288.5 375.5 L 288.5 362.5 A 0 0 0 0 1 288.5 362.5 Z" stroke="#ffffff" stroke-width="1" opacity="1" filter="none" class="highcharts-point highcharts-color-2" tabindex="-1" role="img" aria-label="x, 2, 0.2. GDP." style="outline: none;"></path><path fill="rgb(0, 226, 114, 0.5)" d="M 416.5 362.5 L 478.5 362.5 A 0 0 0 0 1 478.5 362.5 L 478.5 375.5 A 0 0 0 0 1 478.5 375.5 L 416.5 375.5 A 0 0 0 0 1 416.5 375.5 L 416.5 362.5 A 0 0 0 0 1 416.5 362.5 Z" stroke="#ffffff" stroke-width="1" opacity="1" filter="none" class="highcharts-point highcharts-color-2" tabindex="-1" role="img" aria-label="x, 3, 0.2. GDP." style="outline: none;"></path></g><g class="highcharts-markers highcharts-series-2 highcharts-column-series highcharts-color-2" data-z-index="0.1" opacity="1" transform="translate(79,10) scale(1 1)" clip-path="none" aria-hidden="true"></g></g><text x="10" text-anchor="start" class="highcharts-title" data-z-index="4" style="font-size: 1.2em; color: rgb(51, 51, 51); font-weight: bold; fill: rgb(51, 51, 51);" text-align="left" y="25" transform-origin="10 22" transform="translate(0,0) scale(1 1)" aria-hidden="true"></text><text x="10" class="highcharts-subtitle" data-z-index="4" text-align="left" y="24" text-anchor="start" transform-origin="10 15" transform="translate(0,0) scale(1 1)" style="color: rgb(102, 102, 102); font-size: 0.8em; fill: rgb(102, 102, 102);" aria-hidden="true"></text><text x="10" text-anchor="start" class="highcharts-caption" data-z-index="4" style="color: rgb(102, 102, 102); font-size: 0.8em; fill: rgb(102, 102, 102);" text-align="left" y="397" transform-origin="10 15" transform="translate(0,0) scale(1 1)" aria-hidden="true"></text><g class="highcharts-stack-labels" data-z-index="6" opacity="1" transform="translate(79,10)" aria-hidden="true"><g class="highcharts-label highcharts-stack-labels" transform="translate(46,147)"><text x="17.776077270507812" data-z-index="1" y="16" text-anchor="middle" style="color: rgb(0, 0, 0); font-size: 0.7em; font-weight: bold; fill: rgb(0, 0, 0);"><tspan class="highcharts-text-outline" fill="#FFFFFF" stroke="#FFFFFF" stroke-width="2px" stroke-linejoin="round" style="">3.3%<tspan x="17.776077270507812" dy="0">​</tspan></tspan>3.3%</text></g><g class="highcharts-label highcharts-stack-labels" transform="translate(174,47)"><text x="17.776077270507812" data-z-index="1" y="16" text-anchor="middle" style="color: rgb(0, 0, 0); font-size: 0.7em; font-weight: bold; fill: rgb(0, 0, 0);"><tspan class="highcharts-text-outline" fill="#FFFFFF" stroke="#FFFFFF" stroke-width="2px" stroke-linejoin="round">4.9%<tspan x="17.776077270507812" dy="0">​</tspan></tspan>4.9%</text></g><g class="highcharts-label highcharts-stack-labels" transform="translate(302,97)"><text x="17.776077270507812" data-z-index="1" y="16" text-anchor="middle" style="color: rgb(0, 0, 0); font-size: 0.7em; font-weight: bold; fill: rgb(0, 0, 0);"><tspan class="highcharts-text-outline" fill="#FFFFFF" stroke="#FFFFFF" stroke-width="2px" stroke-linejoin="round">4.1%<tspan x="17.776077270507812" dy="0">​</tspan></tspan>4.1%</text></g><g class="highcharts-label highcharts-stack-labels" transform="translate(429,97)"><text x="17.776077270507812" data-z-index="1" y="16" text-anchor="middle" style="color: rgb(0, 0, 0); font-size: 0.7em; font-weight: bold; fill: rgb(0, 0, 0);"><tspan class="highcharts-text-outline" fill="#FFFFFF" stroke="#FFFFFF" stroke-width="2px" stroke-linejoin="round">4.1%<tspan x="17.776077270507812" dy="0">​</tspan></tspan>4.1%</text></g></g><g class="highcharts-axis-labels highcharts-xaxis-labels" data-z-index="7" aria-hidden="true"><text x="142.875" text-anchor="middle" transform="translate(0,0)" style="color: rgb(51, 51, 51); cursor: default; font-size: 0.8em; fill: rgb(51, 51, 51);" y="412" opacity="1"></text><text x="270.625" text-anchor="middle" transform="translate(0,0)" style="color: rgb(51, 51, 51); cursor: default; font-size: 0.8em; fill: rgb(51, 51, 51);" y="412" opacity="1"></text><text x="398.375" text-anchor="middle" transform="translate(0,0)" style="color: rgb(51, 51, 51); cursor: default; font-size: 0.8em; fill: rgb(51, 51, 51);" y="412" opacity="1"></text><text x="526.125" text-anchor="middle" transform="translate(0,0)" style="color: rgb(51, 51, 51); cursor: default; font-size: 0.8em; fill: rgb(51, 51, 51);" y="412" opacity="1"></text></g><g class="highcharts-axis-labels highcharts-yaxis-labels" data-z-index="7" aria-hidden="true"><text x="64" text-anchor="end" transform="translate(0,0)" style="color: rgb(51, 51, 51); cursor: default; font-size: 0.8em; fill: rgb(51, 51, 51);" y="390" opacity="1">0.0%</text><text x="64" text-anchor="end" transform="translate(0,0)" style="color: rgb(51, 51, 51); cursor: default; font-size: 0.8em; fill: rgb(51, 51, 51);" y="327" opacity="1">1.0%</text><text x="64" text-anchor="end" transform="translate(0,0)" style="color: rgb(51, 51, 51); cursor: default; font-size: 0.8em; fill: rgb(51, 51, 51);" y="265" opacity="1">2.0%</text><text x="64" text-anchor="end" transform="translate(0,0)" style="color: rgb(51, 51, 51); cursor: default; font-size: 0.8em; fill: rgb(51, 51, 51);" y="202" opacity="1">3.0%</text><text x="64" text-anchor="end" transform="translate(0,0)" style="color: rgb(51, 51, 51); cursor: default; font-size: 0.8em; fill: rgb(51, 51, 51);" y="140" opacity="1">4.0%</text><text x="64" text-anchor="end" transform="translate(0,0)" style="color: rgb(51, 51, 51); cursor: default; font-size: 0.8em; fill: rgb(51, 51, 51);" y="77" opacity="1">5.0%</text><text x="64" text-anchor="end" transform="translate(0,0)" style="color: rgb(51, 51, 51); cursor: default; font-size: 0.8em; fill: rgb(51, 51, 51);" y="15" opacity="1">6.0%</text></g><text x="590" class="highcharts-credits" text-anchor="end" data-z-index="8" text-align="right" y="395" style="cursor: pointer; color: rgb(153, 153, 153); font-size: 0.6em; fill: rgb(153, 153, 153);" aria-label="Chart credits: Highcharts.com" aria-hidden="false">Highcharts.com</text></svg>