<svg xmlns:xlink="http://www.w3.org/1999/xlink" version="1.1" class="highcharts-root" style="font-family: -apple-system, BlinkMacSystemFont, &quot;Segoe UI&quot;, Roboto, Helvetica, Arial, &quot;Apple Color Emoji&quot;, &quot;Segoe UI Emoji&quot;, &quot;Segoe UI Symbol&quot;, sans-serif; font-size: 1rem;" xmlns="http://www.w3.org/2000/svg" width="600" height="400" viewBox="0 0 600 400" aria-label="Interactive chart" aria-hidden="false"><desc aria-hidden="true">Created with Highcharts 12.1.2</desc><defs aria-hidden="true"><filter id="highcharts-drop-shadow-1"><feDropShadow dx="1" dy="1" flood-color="#000000" flood-opacity="0.75" stdDeviation="2.5"></feDropShadow></filter><clipPath id="highcharts-iehwomf-35-"><rect x="0" y="0" width="507" height="375" fill="none"></rect></clipPath></defs><rect fill="transparent" class="highcharts-background" filter="none" x="0" y="0" width="600" height="400" rx="0" ry="0" aria-hidden="true"></rect><rect fill="none" class="highcharts-plot-background" x="83" y="10" width="507" height="375" filter="none" aria-hidden="true"></rect><g class="highcharts-grid highcharts-xaxis-grid" data-z-index="1" aria-hidden="true"><path fill="none" stroke="#e6e6e6" stroke-width="0" stroke-dasharray="none" data-z-index="1" class="highcharts-grid-line" d="M 252.5 10 L 252.5 385" opacity="1"></path><path fill="none" stroke="#e6e6e6" stroke-width="0" stroke-dasharray="none" data-z-index="1" class="highcharts-grid-line" d="M 421.5 10 L 421.5 385" opacity="1"></path><path fill="none" stroke="#e6e6e6" stroke-width="0" stroke-dasharray="none" data-z-index="1" class="highcharts-grid-line" d="M 590.5 10 L 590.5 385" opacity="1"></path><path fill="none" stroke="#e6e6e6" stroke-width="0" stroke-dasharray="none" data-z-index="1" class="highcharts-grid-line" d="M 83.5 10 L 83.5 385" opacity="1"></path></g><g class="highcharts-grid highcharts-yaxis-grid" data-z-index="1" aria-hidden="true"><path fill="none" stroke="#e6e6e6" stroke-width="1" stroke-dasharray="none" data-z-index="1" class="highcharts-grid-line" d="M 83 385.5 L 590 385.5" opacity="1"></path><path fill="none" stroke="#e6e6e6" stroke-width="1" stroke-dasharray="none" data-z-index="1" class="highcharts-grid-line" d="M 83 331.5 L 590 331.5" opacity="1"></path><path fill="none" stroke="#e6e6e6" stroke-width="1" stroke-dasharray="none" data-z-index="1" class="highcharts-grid-line" d="M 83 277.5 L 590 277.5" opacity="1"></path><path fill="none" stroke="#e6e6e6" stroke-width="1" stroke-dasharray="none" data-z-index="1" class="highcharts-grid-line" d="M 83 224.5 L 590 224.5" opacity="1"></path><path fill="none" stroke="#e6e6e6" stroke-width="1" stroke-dasharray="none" data-z-index="1" class="highcharts-grid-line" d="M 83 170.5 L 590 170.5" opacity="1"></path><path fill="none" stroke="#e6e6e6" stroke-width="1" stroke-dasharray="none" data-z-index="1" class="highcharts-grid-line" d="M 83 117.5 L 590 117.5" opacity="1"></path><path fill="none" stroke="#e6e6e6" stroke-width="1" stroke-dasharray="none" data-z-index="1" class="highcharts-grid-line" d="M 83 63.5 L 590 63.5" opacity="1"></path><path fill="none" stroke="#e6e6e6" stroke-width="1" stroke-dasharray="none" data-z-index="1" class="highcharts-grid-line" d="M 83 10.5 L 590 10.5" opacity="1"></path></g><rect fill="none" class="highcharts-plot-border" data-z-index="1" stroke="#cccccc" stroke-width="0" x="83" y="10" width="507" height="375" aria-hidden="true"></rect><g class="highcharts-axis highcharts-xaxis" data-z-index="2" aria-hidden="true"><path fill="none" class="highcharts-axis-line" stroke="#333333" stroke-width="1" data-z-index="7" d="M 83 385.5 L 590 385.5"></path></g><g class="highcharts-axis highcharts-yaxis" data-z-index="2" aria-hidden="true"><text x="24.5625" data-z-index="7" text-anchor="middle" transform="translate(0,0) rotate(270 24.5625 197.5)" class="highcharts-axis-title" style="color: rgb(102, 102, 102); font-size: 0.8em; fill: rgb(102, 102, 102);" y="197.5">% of GDP</text><path fill="none" class="highcharts-axis-line" stroke="#333333" stroke-width="0" data-z-index="7" d="M 83 10 L 83 385"></path></g><g class="highcharts-series-group" data-z-index="3" filter="none" aria-hidden="false"><g class="highcharts-series highcharts-series-0 highcharts-column-series highcharts-color-0" data-z-index="0.1" opacity="1" transform="translate(83,10) scale(1 1)" clip-path="url(#highcharts-iehwomf-35-)" aria-hidden="false" role="region" tabindex="-1" aria-label="Education, bar series 1 of 3 with 3 bars." style="outline: none;"><path fill="#2caffe" d="M 37.5 214.5 L 65.5 214.5 A 0 0 0 0 1 65.5 214.5 L 65.5 227.5 A 3 3 0 0 1 62.5 230.5 L 40.5 230.5 A 3 3 0 0 1 37.5 227.5 L 37.5 214.5 A 0 0 0 0 1 37.5 214.5 Z" stroke="#ffffff" stroke-width="1" opacity="1" filter="none" class="highcharts-point highcharts-negative highcharts-color-0" tabindex="-1" role="img" aria-label="x, 0, -0.3. Education." style="outline: none;"></path><path fill="#2caffe" d="M 209.5 176.5 L 231.5 176.5 A 3 3 0 0 1 234.5 179.5 L 234.5 214.5 A 0 0 0 0 1 234.5 214.5 L 206.5 214.5 A 0 0 0 0 1 206.5 214.5 L 206.5 179.5 A 3 3 0 0 1 209.5 176.5 Z" stroke="#ffffff" stroke-width="1" opacity="1" filter="none" class="highcharts-point highcharts-color-0" tabindex="-1" role="img" aria-label="x, 1, 0.7. Education." style="outline: none;"></path><path fill="#2caffe" d="M 378.5 176.5 L 400.5 176.5 A 3 3 0 0 1 403.5 179.5 L 403.5 214.5 A 0 0 0 0 1 403.5 214.5 L 375.5 214.5 A 0 0 0 0 1 375.5 214.5 L 375.5 179.5 A 3 3 0 0 1 378.5 176.5 Z" stroke="#ffffff" stroke-width="1" opacity="1" filter="none" class="highcharts-point highcharts-color-0" tabindex="-1" role="img" aria-label="x, 2, 0.7. Education." style="outline: none;"></path></g><g class="highcharts-markers highcharts-series-0 highcharts-column-series highcharts-color-0" data-z-index="0.1" opacity="1" transform="translate(83,10) scale(1 1)" clip-path="none" aria-hidden="true"></g><g class="highcharts-series highcharts-series-1 highcharts-column-series highcharts-color-1" data-z-index="0.1" opacity="1" transform="translate(83,10) scale(1 1)" clip-path="url(#highcharts-iehwomf-35-)" aria-hidden="false" role="region" tabindex="-1" aria-label="Life years, bar series 2 of 3 with 3 bars." style="outline: none;"><path fill="#544fc5" d="M 70.5 214.5 L 98.5 214.5 A 0 0 0 0 1 98.5 214.5 L 98.5 350.5 A 3 3 0 0 1 95.5 353.5 L 73.5 353.5 A 3 3 0 0 1 70.5 350.5 L 70.5 214.5 A 0 0 0 0 1 70.5 214.5 Z" stroke="#ffffff" stroke-width="1" opacity="1" filter="none" class="highcharts-point highcharts-negative highcharts-color-1" tabindex="-1" role="img" aria-label="x, 0, -2.6. Life years." style="outline: none;"></path><path fill="#544fc5" d="M 242.5 42.5 L 264.5 42.5 A 3 3 0 0 1 267.5 45.5 L 267.5 214.5 A 0 0 0 0 1 267.5 214.5 L 239.5 214.5 A 0 0 0 0 1 239.5 214.5 L 239.5 45.5 A 3 3 0 0 1 242.5 42.5 Z" stroke="#ffffff" stroke-width="1" opacity="1" filter="none" class="highcharts-point highcharts-color-1" tabindex="-1" role="img" aria-label="x, 1, 3.2. Life years." style="outline: none;"></path><path fill="#544fc5" d="M 411.5 42.5 L 433.5 42.5 A 3 3 0 0 1 436.5 45.5 L 436.5 214.5 A 0 0 0 0 1 436.5 214.5 L 408.5 214.5 A 0 0 0 0 1 408.5 214.5 L 408.5 45.5 A 3 3 0 0 1 411.5 42.5 Z" stroke="#ffffff" stroke-width="1" opacity="1" filter="none" class="highcharts-point highcharts-color-1" tabindex="-1" role="img" aria-label="x, 2, 3.2. Life years." style="outline: none;"></path></g><g class="highcharts-markers highcharts-series-1 highcharts-column-series highcharts-color-1" data-z-index="0.1" opacity="1" transform="translate(83,10) scale(1 1)" clip-path="none" aria-hidden="true"></g><g class="highcharts-series highcharts-series-2 highcharts-column-series highcharts-color-2" data-z-index="0.1" opacity="1" transform="translate(83,10) scale(1 1)" clip-path="url(#highcharts-iehwomf-35-)" aria-hidden="false" role="region" tabindex="-1" aria-label="GDP, bar series 3 of 3 with 3 bars." style="outline: none;"><path fill="#00e272" d="M 104.5 214.5 L 132.5 214.5 A 0 0 0 0 1 132.5 214.5 L 132.5 232.5 A 3 3 0 0 1 129.5 235.5 L 107.5 235.5 A 3 3 0 0 1 104.5 232.5 L 104.5 214.5 A 0 0 0 0 1 104.5 214.5 Z" stroke="#ffffff" stroke-width="1" opacity="1" filter="none" class="highcharts-point highcharts-negative highcharts-color-2" tabindex="-1" role="img" aria-label="x, 0, -0.4. GDP." style="outline: none;"></path><path fill="#00e272" d="M 276.5 203.5 L 298.5 203.5 A 3 3 0 0 1 301.5 206.5 L 301.5 214.5 A 0 0 0 0 1 301.5 214.5 L 273.5 214.5 A 0 0 0 0 1 273.5 214.5 L 273.5 206.5 A 3 3 0 0 1 276.5 203.5 Z" stroke="#ffffff" stroke-width="1" opacity="1" filter="none" class="highcharts-point highcharts-color-2" tabindex="-1" role="img" aria-label="x, 1, 0.2. GDP." style="outline: none;"></path><path fill="#00e272" d="M 445.5 203.5 L 467.5 203.5 A 3 3 0 0 1 470.5 206.5 L 470.5 214.5 A 0 0 0 0 1 470.5 214.5 L 442.5 214.5 A 0 0 0 0 1 442.5 214.5 L 442.5 206.5 A 3 3 0 0 1 445.5 203.5 Z" stroke="#ffffff" stroke-width="1" opacity="1" filter="none" class="highcharts-point highcharts-color-2" tabindex="-1" role="img" aria-label="x, 2, 0.2. GDP." style="outline: none;"></path></g><g class="highcharts-markers highcharts-series-2 highcharts-column-series highcharts-color-2" data-z-index="0.1" opacity="1" transform="translate(83,10) scale(1 1)" clip-path="none" aria-hidden="true"></g></g><text x="10" text-anchor="start" class="highcharts-title" data-z-index="4" style="font-size: 1.2em; color: rgb(51, 51, 51); font-weight: bold; fill: rgb(51, 51, 51);" text-align="left" y="25" transform-origin="10 22" transform="translate(0,0) scale(1 1)" aria-hidden="true"></text><text x="10" class="highcharts-subtitle" data-z-index="4" text-align="left" y="24" text-anchor="start" transform-origin="10 15" transform="translate(0,0) scale(1 1)" style="color: rgb(102, 102, 102); font-size: 0.8em; fill: rgb(102, 102, 102);" aria-hidden="true"></text><text x="10" text-anchor="start" class="highcharts-caption" data-z-index="4" style="color: rgb(102, 102, 102); font-size: 0.8em; fill: rgb(102, 102, 102);" text-align="left" y="397" transform-origin="10 15" transform="translate(0,0) scale(1 1)" aria-hidden="true"></text><g class="highcharts-stack-labels" data-z-index="6" opacity="1" transform="translate(83,10)" aria-hidden="true"></g><g class="highcharts-data-labels highcharts-series-0 highcharts-column-series highcharts-color-0" data-z-index="6" opacity="1" transform="translate(83,10) scale(1 1)" aria-hidden="true"><g class="highcharts-label highcharts-data-label highcharts-data-label-color-0" data-z-index="1" filter="none" transform="translate(32,231)"><text x="19.638839721679688" data-z-index="1" y="16" text-anchor="middle" style="color: rgb(0, 0, 0); font-size: 0.7em; font-weight: bold; fill: rgb(0, 0, 0);"><tspan class="highcharts-text-outline" fill="#FFFFFF" stroke="#FFFFFF" stroke-width="2px" stroke-linejoin="round" style="">-0.3%<tspan x="19.638839721679688" dy="0">​</tspan></tspan>-0.3%</text></g><g class="highcharts-label highcharts-data-label highcharts-data-label-color-0" data-z-index="1" filter="none" transform="translate(203,155)"><text x="17.776077270507812" data-z-index="1" y="16" text-anchor="middle" style="color: rgb(0, 0, 0); font-size: 0.7em; font-weight: bold; fill: rgb(0, 0, 0);"><tspan class="highcharts-text-outline" fill="#FFFFFF" stroke="#FFFFFF" stroke-width="2px" stroke-linejoin="round" style="">0.7%<tspan x="17.776077270507812" dy="0">​</tspan></tspan>0.7%</text></g><g class="highcharts-label highcharts-data-label highcharts-data-label-color-0" data-z-index="1" filter="none" transform="translate(372,155)"><text x="17.776077270507812" data-z-index="1" y="16" text-anchor="middle" style="color: rgb(0, 0, 0); font-size: 0.7em; font-weight: bold; fill: rgb(0, 0, 0);"><tspan class="highcharts-text-outline" fill="#FFFFFF" stroke="#FFFFFF" stroke-width="2px" stroke-linejoin="round">0.7%<tspan x="17.776077270507812" dy="0">​</tspan></tspan>0.7%</text></g></g><g class="highcharts-data-labels highcharts-series-1 highcharts-column-series highcharts-color-1" data-z-index="6" opacity="1" transform="translate(83,10) scale(1 1)" aria-hidden="true"><g class="highcharts-label highcharts-data-label highcharts-data-label-color-1" data-z-index="1" filter="none" transform="translate(65,354)"><text x="19.638839721679688" data-z-index="1" y="16" text-anchor="middle" style="color: rgb(0, 0, 0); font-size: 0.7em; font-weight: bold; fill: rgb(0, 0, 0);"><tspan class="highcharts-text-outline" fill="#FFFFFF" stroke="#FFFFFF" stroke-width="2px" stroke-linejoin="round">-2.6%<tspan x="19.638839721679688" dy="0">​</tspan></tspan>-2.6%</text></g><g class="highcharts-label highcharts-data-label highcharts-data-label-color-1" data-z-index="1" filter="none" transform="translate(236,21)"><text x="17.776077270507812" data-z-index="1" y="16" text-anchor="middle" style="color: rgb(0, 0, 0); font-size: 0.7em; font-weight: bold; fill: rgb(0, 0, 0);"><tspan class="highcharts-text-outline" fill="#FFFFFF" stroke="#FFFFFF" stroke-width="2px" stroke-linejoin="round">3.2%<tspan x="17.776077270507812" dy="0">​</tspan></tspan>3.2%</text></g><g class="highcharts-label highcharts-data-label highcharts-data-label-color-1" data-z-index="1" filter="none" transform="translate(405,21)"><text x="17.776077270507812" data-z-index="1" y="16" text-anchor="middle" style="color: rgb(0, 0, 0); font-size: 0.7em; font-weight: bold; fill: rgb(0, 0, 0);"><tspan class="highcharts-text-outline" fill="#FFFFFF" stroke="#FFFFFF" stroke-width="2px" stroke-linejoin="round">3.2%<tspan x="17.776077270507812" dy="0">​</tspan></tspan>3.2%</text></g></g><g class="highcharts-data-labels highcharts-series-2 highcharts-column-series highcharts-color-2" data-z-index="6" opacity="1" transform="translate(83,10) scale(1 1)" aria-hidden="true"><g class="highcharts-label highcharts-data-label highcharts-data-label-color-2" data-z-index="1" filter="none" transform="translate(99,236)"><text x="19.638839721679688" data-z-index="1" y="16" text-anchor="middle" style="color: rgb(0, 0, 0); font-size: 0.7em; font-weight: bold; fill: rgb(0, 0, 0);"><tspan class="highcharts-text-outline" fill="#FFFFFF" stroke="#FFFFFF" stroke-width="2px" stroke-linejoin="round">-0.4%<tspan x="19.638839721679688" dy="0">​</tspan></tspan>-0.4%</text></g><g class="highcharts-label highcharts-data-label highcharts-data-label-color-2" data-z-index="1" filter="none" transform="translate(270,182)"><text x="17.776077270507812" data-z-index="1" y="16" text-anchor="middle" style="color: rgb(0, 0, 0); font-size: 0.7em; font-weight: bold; fill: rgb(0, 0, 0);"><tspan class="highcharts-text-outline" fill="#FFFFFF" stroke="#FFFFFF" stroke-width="2px" stroke-linejoin="round">0.2%<tspan x="17.776077270507812" dy="0">​</tspan></tspan>0.2%</text></g><g class="highcharts-label highcharts-data-label highcharts-data-label-color-2" data-z-index="1" filter="none" transform="translate(439,182)"><text x="17.776077270507812" data-z-index="1" y="16" text-anchor="middle" style="color: rgb(0, 0, 0); font-size: 0.7em; font-weight: bold; fill: rgb(0, 0, 0);"><tspan class="highcharts-text-outline" fill="#FFFFFF" stroke="#FFFFFF" stroke-width="2px" stroke-linejoin="round">0.2%<tspan x="17.776077270507812" dy="0">​</tspan></tspan>0.2%</text></g></g><g class="highcharts-axis-labels highcharts-xaxis-labels" data-z-index="7" aria-hidden="true"><text x="167.5" text-anchor="middle" transform="translate(0,0)" style="color: rgb(51, 51, 51); cursor: default; font-size: 0.8em; fill: rgb(51, 51, 51);" y="412" opacity="1"></text><text x="336.5" text-anchor="middle" transform="translate(0,0)" style="color: rgb(51, 51, 51); cursor: default; font-size: 0.8em; fill: rgb(51, 51, 51);" y="412" opacity="1"></text><text x="505.5" text-anchor="middle" transform="translate(0,0)" style="color: rgb(51, 51, 51); cursor: default; font-size: 0.8em; fill: rgb(51, 51, 51);" y="412" opacity="1"></text></g><g class="highcharts-axis-labels highcharts-yaxis-labels" data-z-index="7" aria-hidden="true"><text x="68" text-anchor="end" transform="translate(0,0)" style="color: rgb(51, 51, 51); cursor: default; font-size: 0.8em; fill: rgb(51, 51, 51);" y="390" opacity="1">-3.0%</text><text x="68" text-anchor="end" transform="translate(0,0)" style="color: rgb(51, 51, 51); cursor: default; font-size: 0.8em; fill: rgb(51, 51, 51);" y="336" opacity="1">-2.0%</text><text x="68" text-anchor="end" transform="translate(0,0)" style="color: rgb(51, 51, 51); cursor: default; font-size: 0.8em; fill: rgb(51, 51, 51);" y="282" opacity="1">-1.0%</text><text x="68" text-anchor="end" transform="translate(0,0)" style="color: rgb(51, 51, 51); cursor: default; font-size: 0.8em; fill: rgb(51, 51, 51);" y="229" opacity="1">0.0%</text><text x="68" text-anchor="end" transform="translate(0,0)" style="color: rgb(51, 51, 51); cursor: default; font-size: 0.8em; fill: rgb(51, 51, 51);" y="175" opacity="1">1.0%</text><text x="68" text-anchor="end" transform="translate(0,0)" style="color: rgb(51, 51, 51); cursor: default; font-size: 0.8em; fill: rgb(51, 51, 51);" y="122" opacity="1">2.0%</text><text x="68" text-anchor="end" transform="translate(0,0)" style="color: rgb(51, 51, 51); cursor: default; font-size: 0.8em; fill: rgb(51, 51, 51);" y="68" opacity="1">3.0%</text><text x="68" text-anchor="end" transform="translate(0,0)" style="color: rgb(51, 51, 51); cursor: default; font-size: 0.8em; fill: rgb(51, 51, 51);" y="15" opacity="1">4.0%</text></g><text x="590" class="highcharts-credits" text-anchor="end" data-z-index="8" text-align="right" y="395" style="cursor: pointer; color: rgb(153, 153, 153); font-size: 0.6em; fill: rgb(153, 153, 153);" aria-label="Chart credits: Highcharts.com" aria-hidden="false">Highcharts.com</text></svg>