<?xml version="1.0" encoding="utf-8"?>
<!-- Generator: Adobe Illustrator 26.5.0, SVG Export Plug-In . SVG Version: 6.00 Build 0)  -->
<svg version="1.1" id="Layer_1" xmlns="http://www.w3.org/2000/svg" xmlns:xlink="http://www.w3.org/1999/xlink" x="0px" y="0px"
	 viewBox="0 0 656.8 227.4" style="enable-background:new 0 0 656.8 227.4;" xml:space="preserve">
<style type="text/css">
	.st0{fill:#BE0336;}
</style>
<g id="Layer_2_00000003062761546779978990000014069999244743791521_">
	<g id="Layer_1-2">
		<path class="st0" d="M118.5,180.3c0,0,0,0.1,0.1,0.1c0.3,0.3,2.1,0.4,3.3,0.4c4.8,0,11.9-2.3,16.5-4.2c16.4-6.7,30.7-19.7,38-35.9
			c0.4-1,0.5-1.6,0.9-2c0.7-0.7,1.8,0,5.1-0.8c4.6-1.1,8.7-3.5,11.9-7c1.8-1.8,3.3-3.8,4.7-6c6.2-10,8.6-23.6,8.6-35.1
			c0-19-6.7-37.5-17.8-53c-1.7-2.4-3.5-4.7-5.4-7c-0.6-0.7-1.9-2.9-2.9-3l0,0c-0.6,0-0.7,2-0.7,3.1v0.8c-0.2,2.8-0.2,5.6-0.2,8.3
			c0,4.6,0.2,9.2,0.5,13.7c1,14.9,3.6,29.6,9,43.7c0.8,2.2,1.9,3.5,2.4,3.5c0.1,0,0.2-0.1,0.2-0.4c0-0.1,0-0.3-0.1-0.4
			c-0.1-0.7-0.6-1.8-0.9-2.7c-1.3-3.8-2.3-7.6-3.1-11.5c-2.5-11.4-3.7-23-3.8-34.6c0-3.1,0.1-6.2,0.3-9.2C194.3,54,202,69.9,202,86
			c0,10.8-3.4,24.1-11.3,31.9c-2.5,2.5-5.5,4.5-8.9,5.7c1.1-5.5,1.7-11,1.6-16.6c0.1-12.6-2.7-25-8-36.4c-2.6-5.1-5.5-10.1-8.6-15
			c-0.2-0.2-0.4-0.3-0.6-0.3c-0.2,0-0.4,0.1-0.5,0.2c-1.1,1-6.3,19.2-6.3,39.8c-0.1,8,0.8,16,2.8,23.8c1.1,4.5,2.9,8.7,5.4,12.6
			c0.6,0.9,1.2,1.2,1.2,1.8c0,1.3-5.3,8.6-6.6,10.2c-15.5,19.7-42.4,35.1-43.5,36.3C118.6,180.2,118.5,180.2,118.5,180.3z
			 M166,119.7c-1.9-3.1-2.3-8.2-2.3-12.7c-0.1-12.2,1.5-24.3,4.9-36c5.5,9.9,8.6,19.8,8.6,31.1c0,7.8-1.4,15.5-4,22.8
			C170.3,124,167.7,122.2,166,119.7 M75.8,137.3c0-9.9-1.8-12.1-1.8-18.2c0-2.5,1.4-11.9,3.2-13.7c0.2-0.2,0.4-0.3,0.6-0.3
			s0.3,0.1,0.4,0.2c1.8,1.8,2.1,17.5,2.1,20.9c0,4.7-0.8,10-0.8,15.1c0,2.4,0.2,4.8,0.7,7.2c1.7,7.8,9,11.7,16.3,11.7
			c2,0,4.1-0.3,6-0.9c6.6-2.1,12.5-6.2,17.5-11.2c2.4-2.5,4.7-5.1,6.8-7.9c0.5-0.7,1.1-1.5,1.7-2.1c0.5-0.6,1.3-1,2.2-1
			c1.4,0,5.1,1.7,8.5,1.7c2.3,0,4.4-0.9,6-2.5c0.5-0.4,0.8-0.9,1.1-1.5c1.5-2.8,5-10.4,5-11.3v-0.1c0.1,0,0.1,0.1,0.2,0.1
			c0.4,0.6,0.5,1.3,0.4,2c-0.1,2.3-0.5,4.6-1,6.9c-0.5,2.7-1.2,5.4-2,8c-1.6,5.3-4.2,11.4-9.6,13.7c-1.1,0.5-2.4,0.7-3.6,0.7
			c-5.5,0-7.2-3.6-9.3-3.6c-0.2,0-0.4,0.1-0.6,0.2c0,0-4.4,5.6-5.5,6.9c-6.2,7.2-14.5,16.1-24.4,17.4c-0.9,0.1-1.8,0.2-2.7,0.2
			c-4.2,0-11.3-1.5-14.9-7.6c-2.8-4.7-2.9-13.6-2.9-15.7C75.4,147.3,75.8,142.4,75.8,137.3z M151.3,111.9c1.1,1,1.9,2,1.9,2.4
			c-0.3,0.7-0.8,1.3-1.4,1.8c-1.8,1.8-4.7,4.2-5.3,4.2c-1-0.6-1.9-1.3-2.7-2.2c-1.7-1.7-3.5-3.8-3.5-4.2c0.3-0.6,0.8-1.2,1.3-1.7
			c1.8-1.8,4.7-4.2,5.3-4.2h0.1C147.5,108.4,149.7,110.3,151.3,111.9z M227.7,82.7c0,23.3-10.2,47.1-24.6,65.9
			c-4.1,5.3-8.5,10.3-13.2,15c-24.5,24.4-55.7,41.8-68.2,54.4c-1.7,1.7-3.4,3.6-4.8,5.6c-0.6,1.2-1.4,2.4-2.2,3.5
			c-0.2,0.2-0.4,0.3-0.6,0.4c-0.2,0-0.4-0.1-0.5-0.3c-1.1-1.1-2.8-4.5-3.6-5.7c-2.3-3.2-4.9-6.2-7.7-8.9c-9.2-9.2-21-17.6-30.8-24.6
			c-9.4-6.8-20.4-13.3-28.6-21.5c-5.1-5.1-9.6-13.2-9.6-20.9c0-5.8,2.7-10.5,6.7-14.6c1.8-1.8,3.8-3.5,6-4.9
			c0.2-0.1,0.4-0.3,0.6-0.5c0.2-0.2,0.4-0.5,0.4-0.8c-0.2-0.7-0.4-1.4-0.7-2.1c-0.7-2.5-1.1-5.1-1.1-7.7c0-7.2,3.2-13.2,8.4-18.3
			c7.7-7.7,19.1-12.8,27-16.7c0-4.3-0.4-9.2-3.4-12.2c-0.3-0.3-0.6-0.6-1-0.9c-1,1-1.9,1.9-2.9,2.8C64,78,52.8,85,40.4,85
			c-6.8,0-13.6-2.2-18.3-6.9c-3.8-3.9-6.1-9.1-6.5-14.6c-0.1-0.6,0.1-1.1,0.4-1.6c0.1-0.1,0.2-0.1,0.2-0.1c0.3,0,0.5,0.2,0.7,0.4
			c0.7,0.7,1.5,2.2,2.5,3.2c4.5,4.5,10.8,6.3,17.2,6.3c14.1,0,26.5-8.5,36.3-18.5c11.6-12,20.8-26.2,26.9-41.7
			c1.8-4.6,2.2-6.9,2.7-7.4c0-0.1,0.1-0.1,0.2-0.1s0.2,0.1,0.3,0.2c0.2,0.2,0.3,0.4,0.5,0.6c4.8,7.4,6.1,17.7,6.1,26.6
			c0,1.2,0,5.3-0.6,5.9c0,0-0.1,0.1-0.2,0.1s-0.2,0-0.2-0.1c-0.2-0.3-0.4-0.6-0.5-0.9c-1.7-4.3-2.7-9.1-3.7-13.7
			c-2.9,7.2-6.4,14.3-10.5,21c-2.2,3.7-4.5,7.3-7.1,10.7c-1.1,1.5-2.3,3-3.5,4.5c-0.9,1.1-1.5,1.5-1.5,2.1c0.1,0.5,0.3,1,0.6,1.5
			c2.5,3.9,2.9,8.6,2.9,13.2c0,0.8,0,1.7,0,2.5c0,1.3-0.1,2.8-0.1,4.3c0,3.7,0.4,7.7,2.7,9.7c1.5,1.4,3.5,2.1,5.6,2.2
			c0.9,0,1.7-0.2,2.5-0.6c1.4-0.8,2.2-3.7,3-3.7c0.3,0,0.6,0.5,0.9,2c1.2,5.9,6.5,6.9,12,6.9h0.9c12.9-0.2,26.8-5.7,35.2-15.7
			c-8.8,3.4-18.2,5.2-27.7,5.3c-0.8,0-1.7,0-2.7,0c-5,0-11.4-0.5-13.4-5.4c-0.5-1.2-0.7-2.6-0.7-3.9c0-4.6,2.6-9.3,4.9-12.8
			c4.5-6.7,10.6-12.2,17.7-16c3-1.7,9.7-5.2,14.9-5.2c2.6,0,4.8,0.9,6,3.4c0.5,1.2,0.7,2.5,0.7,3.8c-0.1,2.5-0.5,5-1.3,7.5
			c-0.1,0.5-1.7,6.6-3,6.6h-0.1c-0.4-0.1-0.5-0.5-0.5-1.1c0-0.9,0.3-2.2,0.3-3.4c0.1-0.9-0.2-1.8-1-2.3c-1.4-0.7-3-1-4.5-1
			c-2.5,0.1-4.9,0.6-7.2,1.5c-8.1,3-15.2,8.1-20.8,14.6c2.1,1.8,7.4,2.2,11.9,2.2c1.7,0,3.3-0.1,4.6-0.1c6.1-0.4,12.1-1.4,18-3
			c2.3-0.6,7.3-2.5,8.1-2.8h0.1c0.5,0,0.6,0.9,0.6,2c0,1.3-0.1,2.5-0.3,3.8c-0.5,4.9-2.1,9.6-4.7,13.8c-5.4,9-14.6,15.2-24.5,18.6
			c-4.8,1.7-9.8,2.6-14.9,2.8c-5.7,0-10.8-1.8-12.4-7.5c-1.3,1.3-3.1,2-5,1.9c-2.4,0-4.7-0.8-6.6-2.2c-3.2-2.5-4.2-7.1-4.4-10.9
			c-6.8,3.4-13.6,7-19.4,11.9c-5,4.2-10.8,10.9-10.8,17.9c0,0.1,0,0.2,0,0.4c5-2.8,12.7-6.3,14.5-12.4c0.2-0.5,0.3-0.7,0.5-0.7
			c0.5,0,1,1.5,1.3,2.1c0.8,2.3,1.4,4.7,1.5,7.1c0,0.5,0,1,0,1.5c0,6.4-2.8,11.5-8.1,15.4c-5.8,4.2-13.2,6.6-18.1,12
			c-1,1-1.9,1.8-1.9,2.6c0.1,0.6,0.4,1.1,0.8,1.4c1.7,1.5,3.5,2.9,5.3,4.3c3.3,2.5,6.7,4.9,10,7.3c7,5,14,10.1,20.9,15.3
			c12.7,9.6,25.7,20,34.3,33.5c5.5-9.4,15.6-16.1,24.2-22.4c16.1-11.8,34.5-24.1,50.8-40.4c7.3-7.2,13.8-15.2,19.4-23.7
			c11-17,17.4-36.7,17.4-56.4c0-14.3-6.7-27.2-16.6-37.2c-4-4-8.4-7.5-13.3-10.3c-9.3-5.6-20-8.6-30.9-8.7
			c-12.9-0.2-25.3,4.9-34.5,14c-2.9,2.9-5.4,6.1-7.4,9.7c-0.5,1.1-1.1,2.2-1.8,3.3c-0.1,0.1-0.2,0.1-0.3,0.2c-0.1,0-0.2-0.1-0.3-0.2
			c-0.7-0.7-1.7-3.5-1.7-6.7c0-6.5,3.2-14.9,9.1-20.8c8.8-8.8,21.2-12.7,33.6-12.7c17.3,0,33.3,7.5,45.1,19.3
			c6.5,6.5,11.7,14.3,15.2,22.8C224.5,55.7,227.7,69.1,227.7,82.7z M159.7,39.6l0.2,0.2c1.4,1.2,3.2,1.8,5.1,1.7
			c0.9,0,1.8-0.1,2.7-0.2c1-0.1,1.7-0.5,2.2-0.5c0.2,0,0.2,0,0.3,0.1c0.2,0.2,0.2,0.5,0.2,0.8c0,0.2,0,0.4,0,0.7
			c-0.4,3.5-2.8,4.4-4.4,6c-1,1-4.9,5.5-5.7,6.2c0,0-0.2,0.1-0.1,0.1c-0.1-0.1-0.2-0.1-0.3-0.2c-0.2-0.2-0.3-0.5-0.3-0.8
			c0-2.1,2.9-6.1,3.4-6.7c-1.5,0-2.9-0.6-4-1.6c-1.1-1.2-1.7-2.7-1.6-4.3c0-2.3,0.9-4.4,2.4-6c1.5-1.5,3.6-2.3,5.7-2.3
			c0.6-0.1,1.2,0.1,1.7,0.5c0.3,0.4,0.5,0.8,0.5,1.3c-0.1,1.2-0.4,2.3-1.1,3.3c-0.4,0.3-0.9,0.5-1.4,0.4h-1
			C162.6,38.2,161,38.7,159.7,39.6L159.7,39.6z M128.9,132.6c-0.6,0-3.6-2.5-5.4-4.3c-0.2-0.2-1.3-1.3-1.3-1.6s1.9-2.6,3.5-4.2
			c0.3-0.3,2.2-2.2,2.6-2.2c0.6,0,3.6,2.5,5.4,4.3c0.3,0.3,1.3,1.3,1.3,1.7s-0.8,1.3-1.9,2.4C131.6,130.3,129.4,132.2,128.9,132.6
			C129,132.6,128.9,132.6,128.9,132.6L128.9,132.6z M95.2,125c-0.6,0-3.6-2.5-5.4-4.2c-0.2-0.2-1.3-1.3-1.3-1.6
			c0-0.8,5.4-6.4,6.2-6.4c0.6,0,3.6,2.5,5.4,4.3c0.3,0.3,1.3,1.3,1.3,1.7s-0.8,1.3-1.9,2.4C97.9,122.7,95.7,124.6,95.2,125
			C95.3,125,95.3,125,95.2,125z M143.2,40.8c-0.9,0-6.7-5.2-6.7-5.9s5.4-6.4,6.2-6.4s6.7,5.2,6.7,6C149.4,35.5,144,40.2,143.2,40.8
			C143.3,40.8,143.2,40.8,143.2,40.8L143.2,40.8z M28.4,140.8L28.4,140.8l-1-1.3l0,0L28.4,140.8c0.5,0.9,0.8,2,0.7,3.2
			c0,2.5-0.9,5-1.4,5c-0.3-0.1-0.6-0.3-0.9-0.6c-1.6-1.9-3.1-4-4.4-6.2C18,135.5,14.2,128.4,11,121C4.6,105.9,0.4,89.4,0.4,73.2
			c0-21.2,7.7-39,20.4-51.7C34.3,8.3,52.4,0.8,71.2,0.6c5.5,0,11,0.7,16.3,2.2c1.3,0.4,4.6,0.9,5.9,2.1C93.8,5.3,94,5.8,94,6.3
			c0,1.8-1.6,4.4-2.4,5.7c-0.5,0.9-1.1,1.6-1.7,2.4c-0.7,0.7-1.6,1.1-2.7,1.1c-0.4,0-0.8,0-1.2-0.1c-3.7-0.7-7.4-1-11.2-1
			c-18.1,0.2-35.4,7.2-48.6,19.5C12.7,46.9,5,64.9,4.9,83.8C4.9,105.8,15.9,123.6,28.4,140.8"/>
		<path class="st0" d="M257.7,185.4c-5.3,0-8.7-2.8-8.7-7.4c0-0.6,0-1.2,0.1-1.8l0.5-0.3c1.8,0.9,3.7,1.3,5.7,1.3
			c7,0,9.4-4.8,9.4-13.2v-27.5H250v-8.8h27.5v34.9C277.5,176.5,269,185.4,257.7,185.4"/>
		<path class="st0" d="M288.4,151.2l-1.2-8.7c4.2-1.2,8.6-1.8,12.9-1.8c10.4,0,18.8,3.7,18.8,16v17.7c0,2.4,0.7,3.9,2.8,3.9
			c0.6,0,1.3-0.1,1.8-0.5l0.4,0.3c-0.4,3.6-3.2,6.5-8,6.5c-5.4,0-7.9-3.5-8.3-6.5h-0.2c-3.9,4.1-7.6,7.2-12.7,7.2
			c-7,0-11.1-5.6-11.1-12.5c0-8.3,6-13.2,17.5-13.2c2.1,0,4.1,0.1,6.2,0.4v-3.6c0-5.2-3.4-7.2-8.5-7.2
			C295.1,149.2,291.6,149.9,288.4,151.2 M307.2,166.6c-1.7-0.4-3.4-0.6-5.2-0.6c-5.2,0-7.3,2.1-7.3,5.1c-0.2,2.4,1.6,4.5,4,4.6
			c0.2,0,0.4,0,0.6,0c3.2,0,5.6-2.2,8-4.6L307.2,166.6z"/>
		<path class="st0" d="M386.2,184.6c-5.5,0-8.4-3.6-8.4-9.5v-19.9c0-3.1-1.7-4.6-3.8-4.6c-3.8,0-7.2,4.1-9.5,6.7V184h-11.7v-28.7
			c0-3.1-1.7-4.6-3.8-4.6c-3.8,0-7.2,4.1-9.5,6.7V184h-11.7v-42.6h11.5v8.1h0.2c4.6-5.2,9.3-9.4,15.8-9.4c2.2,0,4.4,0.8,6.1,2.3
			c2,1.8,2.8,4.4,3,7.1h0.1c4.6-5.2,9.3-9.4,15.8-9.4c2.2,0,4.4,0.8,6.1,2.3c2.8,2.5,3.1,6.2,3.1,9.8v22.3c0,2.1,0.6,3.8,2.6,3.8
			c0.6,0,1.2-0.1,1.7-0.5l0.4,0.3C393.8,181.7,391,184.6,386.2,184.6"/>
		<path class="st0" d="M432.5,160.1l-26.7,3.8c0.9,7.9,6.2,13.3,15.1,13.3c3.2,0,7-0.6,9.5-2.6l0.5,0.4c0.1,0.5,0.1,1,0.1,1.4
			c0,7.3-7,8.9-12.8,8.9c-13.6,0-23.8-9-23.8-23.1c0-12.9,8-22,20.8-22c10.2,0,17.3,6.5,17.3,16.8
			C432.8,158,432.7,159.1,432.5,160.1 M414.4,146.9c-6.2,0-8.3,4.6-8.8,10.4l15.9-2.5C421.6,150.6,419.3,146.9,414.4,146.9"/>
		<path class="st0" d="M472.8,160.1l-26.7,3.8c1,7.9,6.2,13.3,15.1,13.3c3.2,0,7-0.6,9.6-2.6l0.5,0.4c0.1,0.5,0.1,1,0.1,1.4
			c0,7.3-7,8.9-12.8,8.9c-13.6,0-23.8-9-23.8-23.1c0-12.9,8-22,20.8-22c10.2,0,17.3,6.5,17.3,16.8C473.1,158,473,159.1,472.8,160.1
			 M454.7,146.9c-6.2,0-8.3,4.6-8.8,10.4l16-2.5C461.9,150.6,459.6,146.9,454.7,146.9"/>
		<path class="st0" d="M486.1,185.3c-5.4,0-8.4-3.6-8.4-9.5v-51.6h11.7v51c0,2.1,0.6,3.8,2.6,3.8c0.6,0,1.2-0.1,1.7-0.5l0.4,0.3
			C493.8,182.3,490.9,185.3,486.1,185.3"/>
		<path class="st0" d="M281,104.1c-18.2,0-32.1-11.5-32.1-30.7s13.8-27.7,31.3-27.7c4.6,0,9.1,0.3,13.6,1l-1.3,9.4
			c-3.6-1.2-7.4-1.7-11.2-1.7c-12.3,0-19.3,6.2-19.3,18.7c0,12.9,8.7,22.4,22.1,22.4c3.5,0,7.3-0.6,10.3-2.6l0.5,0.4
			c0.1,0.5,0.1,1,0.1,1.5C295.1,102.7,287.1,104.2,281,104.1"/>
		<path class="st0" d="M313.4,104.4c-13.6,0-20.5-10.4-20.5-23.3c0-13.6,8.5-22.2,21.9-22.2c12.8,0,20.2,8,20.2,21
			C335,93.4,327.3,104.4,313.4,104.4 M313.8,66.6c-7.2,0-8.7,7.6-8.7,13.2s1.2,16.8,9.1,16.8c7,0,8.6-9.3,8.6-15.3
			C322.8,75.5,321.4,66.6,313.8,66.6"/>
		<path class="st0" d="M398.4,103.5c-5.4,0-8.4-3.6-8.4-9.5V74.1c0-3.1-1.7-4.6-3.8-4.6c-3.8,0-7.2,4.2-9.5,6.7v26.6H365V74.1
			c0-3.1-1.7-4.6-3.8-4.6c-3.8,0-7.2,4.2-9.5,6.7v26.6H340V60.2h11.5v8.1h0.2c4.6-5.2,9.3-9.4,15.8-9.4c2.2,0,4.4,0.8,6.1,2.3
			c2,1.8,2.8,4.4,3,7.1h0.1c4.6-5.2,9.3-9.4,15.8-9.4c2.2,0,4.4,0.8,6.1,2.3c2.8,2.5,3.1,6.2,3.1,9.8v22.3c0,2.1,0.6,3.8,2.6,3.8
			c0.6,0,1.2-0.1,1.7-0.5l0.4,0.3C406.1,100.5,403.2,103.5,398.4,103.5"/>
		<path class="st0" d="M469.4,103.5c-5.5,0-8.4-3.6-8.4-9.5V74.1c0-3.1-1.7-4.6-3.8-4.6c-3.8,0-7.2,4.2-9.5,6.7v26.6H436V74.1
			c0-3.1-1.7-4.6-3.8-4.6c-3.8,0-7.2,4.2-9.5,6.7v26.6H411V60.2h11.5v8.1h0.2c4.6-5.2,9.3-9.4,15.8-9.4c2.2,0,4.4,0.8,6.1,2.3
			c2,1.8,2.8,4.4,3,7.1h0.1c4.6-5.2,9.3-9.4,15.8-9.4c2.2,0,4.4,0.8,6.1,2.3c2.8,2.5,3.1,6.2,3.1,9.8v22.3c0,2.1,0.6,3.8,2.6,3.8
			c0.6,0,1.2-0.1,1.7-0.5l0.4,0.3C477,100.5,474.2,103.5,469.4,103.5"/>
		<path class="st0" d="M514.8,103.5c-6.1,0-8.3-4.3-8.3-7.4v-1.4h-0.2c-4.5,5.2-9.2,9.5-15.7,9.5c-2.2,0-4.4-0.8-6.1-2.3
			c-2.8-2.5-3.1-6.2-3.1-9.8V60.2h11.8V89c0,3.1,1.7,4.6,3.8,4.6c3.7,0,7.2-4.2,9.4-6.7V60.2h11.8v33.1c0,2.1,0.6,3.8,2.6,3.8
			c0.6,0,1.2-0.2,1.7-0.5l0.4,0.3C522.4,100.5,519.7,103.5,514.8,103.5"/>
		<path class="st0" d="M562.8,103.5c-5.5,0-8.5-3.6-8.5-9.5V74.1c0-3.1-1.9-4.6-4.2-4.6c-4.2,0-7.9,4.2-10.3,6.7v26.6H528V60.2h11.5
			v8.1h0.2c4.7-5.2,9.8-9.4,16.6-9.4c2.4,0,4.7,0.8,6.5,2.3c2.9,2.5,3.2,6.2,3.2,9.8v22.3c0,2.1,0.6,3.8,2.5,3.8
			c0.6,0,1.2-0.1,1.7-0.5l0.4,0.3C570.5,100.5,567.7,103.5,562.8,103.5"/>
		<path class="st0" d="M581.9,54.5c-3.9,0-6.5-2.4-6.5-5.9c0-3.3,2.3-6,6.5-6c4,0,6.4,2.5,6.4,6S585.7,54.5,581.9,54.5 M584.4,103.5
			c-5.5,0-8.5-3.6-8.5-9.5V60.2h11.7v33.1c0,2.1,0.6,3.8,2.6,3.8c0.6,0,1.2-0.2,1.7-0.5l0.4,0.3C592,100.5,589.2,103.5,584.4,103.5"
			/>
		<path class="st0" d="M656.8,60.2v36.6c0,13.2-9.5,22.6-22.3,22.6c-6.2,0-10.2-3-10.2-8.1c0-0.5,0-1,0.1-1.4l0.5-0.4
			c1.7,1.5,4.7,2.2,7.6,2.2c8.3,0,12.9-3.9,12.9-12.5v-5.8h-0.2c-4,4.6-8.8,9.5-15.2,9.5c-2.2,0-4.3-0.8-5.8-2.3
			c-2.7-2.5-3.1-6.3-3.1-9.8V68.1h-11v25.2c0,2.1,0.6,3.8,2.5,3.8c0.6,0,1.2-0.1,1.7-0.5l0.4,0.3c-0.3,3.6-3.2,6.6-8,6.6
			c-5.4,0-8.4-3.6-8.4-9.5V68.1h-5.9l-0.3-0.6c0.4-3.5,2.7-5.2,5.7-7.3l11.3-8.4h0.9v8.4h22.8v27.5c0,2.2,1,4.6,3.6,4.6
			c3.4,0,6.6-4.2,8.8-6.7V60.2H656.8z"/>
		<path class="st0" d="M8.7,15.3H6.8v-11c0.9-0.1,1.8-0.2,2.8-0.2c2.9,0,4.5,1.3,4.5,3.6c0.1,1.5-0.8,2.8-2.2,3.3l3.3,4.3h-2.3
			l-2.9-4H8.7V15.3z M8.7,9.8h0.9c1.5,0,2.5-0.6,2.5-2.1c0-1.3-0.9-2-2.5-2c-0.2,0-0.6,0-0.9,0V9.8z"/>
		<path class="st0" d="M9.9,19.8C4.4,19.8,0,15.4,0,9.9S4.4,0,9.9,0s9.9,4.4,9.9,9.9l0,0C19.8,15.4,15.4,19.8,9.9,19.8z M9.9,1.6
			c-4.6,0-8.3,3.7-8.3,8.3s3.7,8.3,8.3,8.3s8.3-3.7,8.3-8.3C18.2,5.4,14.5,1.7,9.9,1.6z"/>
	</g>
</g>
</svg>
